<svg version="1.2" xmlns="http://www.w3.org/2000/svg" viewBox="0 0 3012 894" width="3012" height="894"><defs><linearGradient id="P" gradientUnits="userSpaceOnUse"/><linearGradient id="g1" x1="403.4" y1="205.8" x2="302.3" y2="579.2" href="#P"><stop stop-color="#00a0ff"/><stop offset=".7" stop-color="#00a1ff"/><stop offset="26" stop-color="#00beff"/><stop offset="51.2" stop-color="#00d2ff"/><stop offset="76" stop-color="#00dfff"/><stop offset="100" stop-color="#00e3ff"/></linearGradient><linearGradient id="g2" x1="757.6" y1="455.4" x2="220.1" y2="455.4" href="#P"><stop stop-color="#ffe000"/><stop offset="40.9" stop-color="#ffbd00"/><stop offset="77.5" stop-color="#ffa500"/><stop offset="100" stop-color="#ff9c00"/></linearGradient><linearGradient id="g3" x1="557.7" y1="544.4" x2="54.2" y2="841.9" href="#P"><stop stop-color="#ff3a44"/><stop offset="100" stop-color="#c31162"/></linearGradient><linearGradient id="g4" x1="168.5" y1="140.5" x2="393" y2="273.3" href="#P"><stop stop-color="#32a071"/><stop offset="6.9" stop-color="#2da771"/><stop offset="47.6" stop-color="#15cf74"/><stop offset="80.1" stop-color="#06e775"/><stop offset="100" stop-color="#00f076"/></linearGradient><linearGradient id="g5" x1="557.5" y1="608.2" x2="52" y2="747.2" href="#P"><stop stop-color="#cc2e36"/><stop offset="100" stop-color="#9c0e4e"/></linearGradient><linearGradient id="g6" x1="264.2" y1="205.8" x2="219.6" y2="579.2" href="#P"><stop stop-color="#008de0"/><stop offset=".7" stop-color="#008de0"/><stop offset="26" stop-color="#00a7e0"/><stop offset="51.2" stop-color="#00b8e0"/><stop offset="76" stop-color="#00c4e0"/><stop offset="100" stop-color="#00c7e0"/></linearGradient><linearGradient id="g7" x1="757.6" y1="457" x2="220.1" y2="457" href="#P"><stop stop-color="#e0c500"/><stop offset="40.9" stop-color="#e0a600"/><stop offset="77.5" stop-color="#e09100"/><stop offset="100" stop-color="#e08900"/></linearGradient><linearGradient id="g8" x1="757.6" y1="457" x2="220.1" y2="457" href="#P"><stop stop-color="#ffe840"/><stop offset="40.9" stop-color="#ffce40"/><stop offset="77.5" stop-color="#ffbc40"/><stop offset="100" stop-color="#ffb540"/></linearGradient><linearGradient id="g9" x1="264" y1="206.2" x2="219.7" y2="562.9" href="#P"><stop stop-color="#40b8ff"/><stop offset=".7" stop-color="#40b9ff"/><stop offset="26" stop-color="#40ceff"/><stop offset="51.2" stop-color="#40ddff"/><stop offset="76" stop-color="#40e7ff"/><stop offset="100" stop-color="#40eaff"/></linearGradient><linearGradient id="g10" x1="168.1" y1="198.8" x2="393.9" y2="260.9" href="#P"><stop stop-color="#65b895"/><stop offset="6.9" stop-color="#62bd95"/><stop offset="47.6" stop-color="#50db97"/><stop offset="80.1" stop-color="#44ed98"/><stop offset="100" stop-color="#40f498"/></linearGradient></defs><style>.A{fill:#a6a6a6}.B{fill:#fff}.C{fill:#00c1ff}.D{fill:url(#g1)}.E{fill:url(#g2)}.F{fill:url(#g3)}.G{fill:url(#g4)}.H{fill:url(#g5)}.I{fill:url(#g6)}.J{fill:url(#g7)}.K{fill:url(#g8)}.L{fill:url(#g9)}.M{fill:url(#g10)}</style><rect  x="6" y="12" width="2999" height="890" rx="111.3"></rect><path fill-rule="evenodd" class="A" d="m3005 123.3v667.5c0 61.2-50 111.2-111.1 111.2h-2776.8c-61.1 0-111.1-50-111.1-111.2v-667.5c0-61.2 50-111.3 111.1-111.3h2776.8c61.1 0 111.1 50.1 111.1 111.3zm-2887.9-93.5c-51.5 0-93.3 41.9-93.3 93.5v667.5c0 51.5 41.8 93.4 93.3 93.4h2776.8c51.5 0 93.3-41.9 93.3-93.4v-667.5c0-51.6-41.8-93.5-93.3-93.5c0 0-2776.8 0-2776.8 0z"/><path class="B" d="m1059.4 239.9q0 28-16.6 44.6q-18.8 19.7-48.9 19.7q-28.9 0-49.1-20q-20.2-20-20.2-49.7q0-29.6 20.2-49.7q20.2-20 49.1-20q14.3 0 27.3 5.6q13.1 5.6 20.9 14.9l-11.7 11.7q-13.3-15.8-36.5-15.8q-21.1 0-36.4 14.8q-15.4 14.8-15.4 38.5q0 23.7 15.4 38.5q15.3 14.8 36.4 14.8q22.3 0 37.2-14.9q9.7-9.7 11.2-27h-48.4v-16.1h64.6q0.9 5.3 0.9 10.1z"/><path fill-rule="evenodd" class="B" d="m1041.3 282.9h-0.1c-12.1 12.8-27.7 19.1-47.3 19.1c-18.8 0-34.4-6.4-47.5-19.4c-13.1-13-19.5-28.8-19.6-48.1c0.1-19.3 6.5-35.1 19.6-48.1c13.1-13 28.7-19.4 47.5-19.4q13.9 0 26.5 5.4q11.5 5 18.6 12.8l-8.5 8.6c-9.1-9.9-21.5-14.9-36.6-14.8c-14.6-0.1-27.4 5.1-38 15.4c-10.7 10.3-16 23.8-16 40.1c0 16.3 5.3 29.8 16 40.1c10.6 10.3 23.4 15.5 38 15.5c15.3 0 28.5-5.2 38.8-15.6c6.9-6.9 10.8-16.5 11.8-28.4l0.2-2.4h-48.6v-11.6h60.5q0.6 4 0.6 7.8c0 18.2-5.4 32.4-15.9 43zm-0.9-96.2l1.7-1.4l-1.6-1.6l-1.5 1.5q0.7 0.7 1.4 1.5zm-11.6 8.8l1.6 1.5l1.7-1.4q-0.8-0.9-1.6-1.8zm29.6 36.6v-2.2l-2.1 0.4q0.1 0.9 0.3 1.8zm3.1 7.8c0 19.1-5.7 34.6-17.2 46.1c-12.9 13.7-30 20.5-50.5 20.5c-19.8 0-36.8-6.9-50.6-20.7c-13.9-13.7-20.9-31-20.9-51.3c0-20.3 7-37.5 20.8-51.2c13.9-13.8 30.9-20.8 50.7-20.7c9.8 0 19.2 1.9 28.2 5.7c8.9 3.9 16.2 9 21.7 15.6l1.3 1.5l-1.5 1.5l-13.4 13.4l-1.5-1.8c-8.5-10.1-19.8-15-34.8-15.1c-13.5 0-25 4.7-34.9 14.2c-9.8 9.5-14.6 21.6-14.7 36.9c0.1 15.3 4.9 27.4 14.7 36.9c9.9 9.5 21.4 14.2 34.9 14.2c14.4 0 26.1-4.7 35.6-14.2c5.6-5.6 9-13.3 10.3-23.3h-48.2v-20.5h68.7l0.3 1.9q1 5.4 1 10.4q0 0 0 0zm-19.3 8.2v-2.2l-2.2-0.2q-0.2 1.2-0.3 2.4zm0.6 36.4l1.5 1.6q0.1 0 0.1-0.1zm118.9-100.3h-60.7v42.3h54.8v16.1h-54.8v42.3h60.7v16.4h-77.8v-133.5h77.8z"/><path fill-rule="evenodd" class="B" d="m1161.8 184.2h-2.2v-2.3h2.2zm-2.2-2.2v-11.9h-73.4v129h73.4v-11.9h-60.7v-46.8h54.7v-11.6h-54.7v-46.8zm4.4 4.5h-60.7v37.8h54.7v20.5h-54.7v37.9h60.7v20.9h-82.2v-138h82.2zm70 114.9h-17.1v-117.1h-37.3v-16.4h91.6v16.4h-37.2c0 0 0 117.1 0 117.1z"/><path fill-rule="evenodd" class="B" d="m1234 301.3h0.3q-0.3 0-0.3 0zm0-2.3h-2.2v2.3h2.2zm-2.2 0v-117.1h37.2v-12h-87.1v12h37.2v117.1zm4.4 2.2h-1.9c0.5 0 1.9 0 1.9 0v2.2h-21.5v-117.1h-37.3v-20.8h96.1v20.8h-37.3zm101.3-133.5h17.1v133.5c0 0-17.1 0-17.1 0z"/><path fill-rule="evenodd" class="B" d="m1337.5 301.3v-2.3h2.2v2.3zm2.3-131.3h12.6v129h-12.6zm17.1 133.5v-137.9h-21.6v137.9zm-19.3 0v-2.2c0 0 0 2.2 0 2.2zm93.1-119.3h37.2v-16.4h-91.6v16.4h37.2v117.1h17.2c0 0 0-117.1 0-117.1z"/><path fill-rule="evenodd" class="B" d="m1430.6 301.3h0.2q-0.2 0-0.2 0zm0-2.3h-2.2v2.3h2.2zm-2.2 0v-117.1h37.2v-12h-87.1v12h37.2v117.1zm4.4 2.2h-2c0.6 0 2 0 2 0v2.2h-21.6v-117.1h-37.2v-20.8h96.1v20.8h-37.3zm208.4-17.2q-19.6 20.2-48.9 20.2q-29.2 0-48.8-20.2c-13.1-13.5-19.6-30-19.6-49.5c0-19.6 6.5-36.1 19.6-49.5q19.6-20.3 48.8-20.3q29.1 0 48.8 20.3q19.8 20.4 19.8 49.5q-0.1 29.2-19.7 49.5zm-85.1-11.2q14.8 15 36.2 15q21.5 0 36.3-15q14.8-15 14.8-38.3q0-23.4-14.8-38.4q-14.8-15-36.3-15q-21.4 0-36.2 15q-14.7 15-14.8 38.4q0.1 23.3 14.8 38.3z"/><path fill-rule="evenodd" class="B" d="m1592.3 302c-18.9 0-34.5-6.5-47.2-19.5c-12.7-13.2-19-29-19-48c0-19 6.3-34.8 19-47.9c12.7-13.1 28.3-19.6 47.2-19.6c18.9 0 34.4 6.5 47.2 19.6c12.8 13.2 19.1 29 19.1 47.9c0 19-6.3 34.8-19 48c-12.7 13-28.3 19.5-47.3 19.5zm50.5-16.4c-13.5 13.9-30.5 20.9-50.5 20.9c-19.9 0-37-7-50.4-20.9h0.1h-0.1c-13.5-13.9-20.3-31.1-20.3-51.1c0-20 6.8-37.2 20.3-51c13.4-14 30.5-21 50.4-21c19.9 0 36.9 7.1 50.4 21c13.6 14 20.4 31.1 20.4 51c0 20-6.8 37.2-20.3 51.1zm-88.2-11.2c-10.3-10.4-15.5-23.9-15.5-39.9c0-16 5.2-29.5 15.5-39.9c10.2-10.4 22.9-15.7 37.7-15.6c14.8-0.1 27.6 5.2 37.8 15.6c10.3 10.4 15.5 23.9 15.5 39.9c0 16-5.2 29.5-15.5 39.9c-10.2 10.4-23 15.7-37.8 15.7c-14.8 0-27.5-5.3-37.7-15.7zm3.1-3.1c9.5 9.6 20.9 14.3 34.6 14.3c13.8 0 25.2-4.7 34.7-14.3c9.4-9.6 14.1-21.7 14.1-36.8c0-15.1-4.7-27.1-14.1-36.8c-9.5-9.6-20.9-14.3-34.7-14.3c-13.7 0-25.1 4.7-34.6 14.3c-9.4 9.7-14.1 21.7-14.1 36.8c0 15.1 4.7 27.2 14.1 36.8zm0 0l-1.6 1.5l1.6-1.5q0 0 0 0zm127.2 30v-133.5h20.8l64.8 103.8h0.8l-0.8-25.7v-78.1h17.2v133.5h-17.9l-67.8-108.9h-0.7l0.7 25.7v83.2c0 0-17.1 0-17.1 0z"/><path fill-rule="evenodd" class="B" d="m1684.9 301.3v-2.3h2.2v2.3zm2.2-2.3h12.7v-80.9l-0.8-28h4.3l67.7 108.9h14.5v-129h-12.7v75.9l0.8 27.9h-4.3l-64.8-103.8h-17.4zm-2.2 4.4v-1.9c0 0.5 0 1.9 0 1.9h-2.2v-137.9h24.3l61.9 99.2l-0.6-18.8v-80.4h21.6v137.9h-21.3l-64.9-104.2l0.5 18.8v85.4zm18.6-111.1h-2.2v0.5l-1.1 0.7l3.5 5.7zm-2.2 0.6l0.8-0.5v2.2h-0.8zm67.8 78.9l2.2-0.1v-0.5l1.2-0.7l-3.6-5.7zm2.2-0.5l-0.7 0.4v-2.2h0.7zm-86.4 30.4v-0.3q0 0 0 0.3zm696.7 99.8h41.5v278.2h-41.5zm419.5 100.2l-114 262.3h-43.2l42.1-93.8l-73.9-168.5h44.6l49.3 120.6h1.5l47.5-120.6zm-191.9 70.8v106.7h-40v-21.5h-1.4c-9.7 14.7-25 27.2-52.9 27.2c-36.4 0-69-24-69-61.2c0-40.8 40.4-62.6 80.1-62.6c19.6 0 35.7 6.4 43.2 10.7v-2.8c-0.4-22.9-22.1-35.8-43.6-35.8c-15.4 0-30 5-37.9 20.4l-36.7-15.4c12.8-29.4 43.9-42.6 73.9-42.6c47.5 0 84.3 27.6 84.3 76.9zm-40 31.5c-11.1-5.3-19.6-9.3-37.9-9.3c-20.3 0-43.9 8.3-43.9 29.7c0 16.9 18.9 23.6 32.5 23.6c23.9 0 46.1-18.2 49.3-44zm-210.4-116.1c0 53-45.2 86.4-91.1 86.4h-57.9v105.3h-41.5v-278.1h99.4c45.9 0 91.1 33.3 91.1 86.4zm-41.5 0c0-22-17.6-47.7-48.6-47.7h-58.9v95.3h58.9c31 0 48.6-26.1 48.6-47.6zm-543.7 13.9h39.4v170c0 69.9-41.2 98.5-89.8 98.5c-45.8 0-73.4-30.8-83.8-55.9l36.2-15c6.4 15.4 22.2 33.7 47.6 33.7c31.1 0 50.4-19.4 50.4-55.6v-13.6h-1.4c-9.3 11.4-27.2 21.5-49.7 21.5c-47.3 0-90.6-41.2-90.6-94.3c0-53.4 43.3-95 90.6-95c22.5 0 40.4 10 49.7 21.2h1.4zm2.9 89.2c0-33.3-22.2-57.7-50.5-57.7c-28.6 0-52.6 24.4-52.6 57.7c0 33 24 57 52.6 57c28.3 0 50.5-24 50.5-57zm65.1-189.6h41.5v278.2h-41.5zm235.9 165.6l-126.4 52.3c9.7 19 24.7 28.7 45.9 28.7c21.1 0 35.8-10.4 46.5-26.2l32.2 21.5c-10.4 15.4-35.4 42-78.7 42c-53.7 0-93.8-41.6-93.8-94.7c0-56.3 40.4-94.6 89.1-94.6c49 0 73 39.1 80.9 60.2zm-48.7-14.3c-4.6-11.9-18.6-20.1-35.1-20.1c-21.1 0-50.4 18.6-49.3 55.2zm-827.2-27.6c1.4 7.2 2.1 15.8 2.1 25.1c0 30.1-8.2 67.4-34.7 93.9c-25.8 26.9-58.7 41.2-102.4 41.2c-80.8 0-148.8-65.9-148.8-146.9c0-81.1 68-147 148.8-147c44.8 0 76.6 17.6 100.6 40.5l-28.3 28.3c-17.2-16.1-40.4-28.7-72.3-28.7c-59 0-105.2 47.7-105.2 106.9c0 59.1 46.2 106.8 105.2 106.8c38.3 0 60.2-15.4 74.1-29.4c11.5-11.5 19-28 21.8-50.6h-95.9v-40.1zm206.1 65.6c0 54.5-42.6 94.6-94.9 94.6c-52.2 0-94.8-40.1-94.8-94.6c0-54.9 42.6-94.6 94.8-94.6c52.3 0 94.9 39.7 94.9 94.6zm-41.5 0c0-34.1-24.7-57.4-53.4-57.4c-28.6 0-53.3 23.3-53.3 57.4c0 33.7 24.7 57.4 53.3 57.4c28.7 0 53.4-23.7 53.4-57.4zm248.4 0c0 54.5-42.6 94.6-94.9 94.6c-52.2 0-94.8-40.1-94.8-94.6c0-54.9 42.6-94.6 94.8-94.6c52.3 0 94.9 39.7 94.9 94.6zm-41.6 0c0-34.1-24.6-57.4-53.3-57.4c-28.6 0-53.3 23.3-53.3 57.4c0 33.7 24.7 57.4 53.3 57.4c28.7 0 53.3-23.7 53.3-57.4z"/><path class="C" d="m259.1 174.1c7.5 0 15.9 2.4 24.9 7.5l322.4 183.5l110.8 63.1c14.1 8 22 18.3 23.3 28.8v0.1c-1.3 10.5-9.2 20.8-23.3 28.8l-110.8 63.1l-322.4 183.5c-8.9 5-17.4 7.4-24.9 7.4c-7.7 0-14.4-2.5-19.6-7.2l-1.7-1.6c-6.4-6.8-10.3-17.5-10.3-31.3v3.3v-492.2v3.3c0-14.9 4.5-26.1 11.9-32.8c5.3-4.8 12-7.3 19.7-7.3z"/><path class="D" d="m239.5 732.7l-1.7-1.6c-6.4-6.8-10.3-17.5-10.3-31.3v3.3v-492.1v3.2c0-14.9 4.5-26.1 11.9-32.8l275.3 275.6z"/><path class="E" d="m606.4 549l-91.7-92l91.7-91.9l110.8 63.1c14.1 8 22 18.3 23.3 28.8v0.1c-1.3 10.5-9.2 20.8-23.3 28.8c0 0-110.8 63.1-110.8 63.1z"/><path class="F" d="m259.1 739.9c-7.7 0-14.4-2.5-19.6-7.2l275.2-275.7l91.7 92l-322.4 183.5c-8.9 5-17.4 7.4-24.9 7.4z"/><path class="G" d="m514.7 457l-275.3-275.6c5.3-4.8 12-7.3 19.7-7.3c7.5 0 15.9 2.4 24.9 7.5l322.4 183.5c0 0-91.7 91.9-91.7 91.9z"/><path class="H" d="m259.1 743.2c-7.7 0-14.4-2.5-19.6-7.3v0.1q0-0.1-0.1-0.1q0 0 0 0q0 0 0 0q0 0 0 0l-1.4-1.4q-0.1-0.1-0.2-0.2l1.7-1.6c5.2 4.7 11.9 7.2 19.6 7.2c7.5 0 16-2.4 24.9-7.4l322.4-183.5l2.1 2l-2.1 1.2l-322.4 183.5c-8.1 4.6-15.9 7-22.9 7.4q-0.2 0-0.5 0.1q-0.2 0-0.5 0q-0.2 0-0.5 0q-0.2 0-0.5 0z"/><path class="I" d="m237.8 734.3c-6.4-6.8-10.3-17.4-10.3-31.2v-3.3c0 13.8 3.9 24.5 10.3 31.3l1.7 1.6z"/><path class="J" d="m608.5 551l-2.1-2l110.8-63.1c14.1-8 22-18.3 23.3-28.8c0 3.8-0.9 7.7-2.6 11.4c-3.4 7.6-10.3 14.8-20.7 20.7c0 0-108.7 61.8-108.7 61.8z"/><path class="K" d="m740.5 457c-1.3-10.5-9.2-20.8-23.3-28.8l-110.8-63.1l2.1-2l108.7 61.8c15.5 8.8 23.3 20.5 23.3 32.1z"/><path class="L" d="m227.5 214.2v-3.4q0-1.8 0.1-3.5v-0.1q0 0 0 0v-0.2c0.7-11.8 4.4-21.1 10.2-27.3l1.6 1.7c-7.4 6.7-11.9 17.9-11.9 32.8z"/><path class="M" d="m606.4 365.1l-322.4-183.5c-9-5.1-17.4-7.5-24.9-7.5c-7.7 0-14.4 2.5-19.7 7.3l-1.6-1.7q0.2-0.2 0.4-0.4q0.2-0.2 0.4-0.4q0.2-0.2 0.4-0.4q0.2-0.1 0.4-0.3q0-0.1 0.1-0.1c5.2-4.7 11.8-7.2 19.4-7.2h0.2c7.5 0 15.9 2.4 24.9 7.5l324.5 184.6v0.1z"/></svg>